<svg width="153" height="198" viewBox="0 0 153 198" fill="none" xmlns="http://www.w3.org/2000/svg">
<path d="M-5.24537 47.8596C-5.36856 47.9345 -5.45985 48.0151 -5.53737 48.0837C-5.77729 48.3514 -5.91468 48.7035 -5.90717 49.0607C-5.89967 49.4179 -5.77556 49.7293 -5.46423 50.0737L-5.09107 50.4772L-4.95862 50.6151C-4.64891 50.9569 -4.34895 51.2832 -4.03102 51.5985C-3.47973 52.1337 -3.06184 52.5351 -2.66009 52.871C-2.12017 53.3881 -1.48 53.8728 -0.983066 54.2476L-0.832646 54.3747L-0.654513 54.5063C-0.689699 54.6029 -0.676054 54.7379 -0.624263 54.8998L-0.55464 55.1978L-0.514226 55.3415L-0.466469 55.531L-0.415561 55.7651C-0.286191 56.7753 -0.266073 57.877 -0.369153 59.0536C-0.506927 60.1295 -0.734987 61.0669 -1.05736 61.8932C-1.92669 64.0192 -3.23487 66.0216 -4.39763 67.7243C-4.69321 68.169 -4.98219 68.5847 -5.27614 69.0321L-5.38883 69.1973C-5.73096 69.7205 -6.07471 70.2411 -6.42915 70.7503C-7.17296 71.8544 -7.80361 72.9864 -8.38864 74.0441C-8.98174 75.1569 -9.53038 76.3859 -9.96675 77.7149C-10.2934 78.6872 -10.5444 79.7352 -10.7642 80.6461L-10.8045 80.8139L-11.0005 81.61C-11.2681 82.7899 -11.4492 83.9889 -11.4659 85.1846C-11.4924 86.3647 -11.4498 87.6211 -11.4275 88.3812L-11.3999 89.3816C-11.3924 89.7388 -11.3376 90.0923 -11.2951 90.4318L-11.2555 90.6477C-11.1709 91.2016 -11.0863 91.7555 -11.0043 92.3109C-10.8947 93.0179 -10.7135 93.7316 -10.5526 94.4074L-10.4426 94.8491L-10.1887 95.9054L-10.1554 96.032L-10.1264 96.1576C-10.09 96.3289 -10.0562 96.5018 -10.0116 96.6466C-9.98252 96.7722 -9.88746 96.958 -9.8436 97.028C-9.70887 97.2828 -9.54049 97.3989 -9.34936 97.5513L-9.26239 97.6166C-9.10941 97.7421 -8.69586 97.8309 -8.48408 97.824C-8.19325 97.7904 -7.97084 97.7268 -7.74498 97.5895C-7.65772 97.5365 -7.55506 97.474 -7.47754 97.4054C-7.27443 97.2318 -7.12177 97.0172 -6.97886 96.787L-6.90774 96.6686C-6.66217 96.376 -6.39291 96.1156 -6.05693 95.8146L-5.84559 95.6145C-5.54297 95.3338 -5.29168 95.0843 -5.0013 94.8576C-4.64419 94.5904 -4.26493 94.3132 -3.89645 94.0641L-3.61267 93.8665C-3.47408 93.7822 -3.3632 93.6933 -3.24001 93.6184C-3.02553 93.463 -2.82498 93.2909 -2.62024 93.1199L-2.56231 93.0596L-2.32165 92.8667C-1.34792 92.0562 -0.495417 91.2728 0.272235 90.5124C0.698931 90.0846 1.19015 89.5675 1.56248 88.9794C1.76992 88.6598 1.98395 88.3112 2.18001 87.9735L2.39147 87.6265L2.64049 87.2602L2.73522 87.1059L2.80634 86.9874C3.04398 86.603 3.25142 86.2834 3.42951 85.9567C3.75712 85.3707 4.01065 84.7796 4.25759 84.2175C5.09879 82.3522 5.81803 80.4392 6.39793 78.5358C6.48216 78.2911 6.53964 78.0377 6.59873 77.7869C6.6716 77.5241 6.74703 77.2597 6.81991 76.997C6.98214 76.4864 7.13207 75.9619 7.26241 75.4457C7.48703 74.582 7.5831 73.6998 7.66684 72.8036L7.67029 72.7299L7.68838 72.572L7.69842 72.4692C7.74224 72.0808 7.7747 71.6742 7.78919 71.2786C7.78799 71.0107 7.79097 70.7438 7.79139 70.4785L7.79887 70.3773L7.80023 70.1078L7.79675 69.7231L7.80289 69.5009L7.80376 69.4287C7.79895 68.923 7.80074 68.3883 7.7534 67.9335C7.73183 67.7067 7.70863 67.4772 7.67569 67.2322L7.65067 67.0791L7.60561 66.7411L7.73839 67.2191L7.80726 67.4423C8.06818 68.2042 8.29108 68.7922 8.46112 69.3693C8.69137 70.003 8.85634 70.6513 9.01817 71.2549L9.15095 71.7329C9.27073 72.1902 9.40351 72.6682 9.50533 73.1364C9.77193 74.3318 10.0986 75.7307 10.3828 77.1804C10.6201 78.4366 10.8858 79.7041 11.1427 80.952L11.2098 81.2515C11.3891 82.1095 11.5546 82.9509 11.7176 83.8224C11.8908 84.9027 12.0934 85.9901 12.3026 87.0485L12.3316 87.1741L12.3833 87.483C12.4872 88.1469 12.6008 88.8264 12.7047 89.4903C12.7345 89.6907 12.7709 89.862 12.8007 90.0624L12.8266 90.1433L12.8371 90.2337C13.0021 91.3404 13.1919 92.6792 13.3936 94.2972C13.3757 94.3082 13.3471 94.3757 13.3323 94.4313L12.9997 95.5074C12.9007 95.8076 12.7878 96.1197 12.6611 96.4153L12.6243 96.5093L12.5155 96.7939L12.4941 96.8786C12.3444 97.2848 12.094 97.9205 11.8651 98.4716C11.3151 99.5797 10.7187 100.619 9.99372 101.64C9.463 102.4 8.85821 103.154 8.40771 103.697L8.35953 103.773L8.25342 103.909L7.69681 104.588C6.27665 106.372 5.02668 108.195 3.95002 110.035L3.63063 110.595C3.19033 111.346 2.70184 112.173 2.30796 112.993C1.81019 113.998 1.24702 115.164 0.792976 116.385C0.45491 117.34 0.0628212 118.473 -0.189931 119.598C-0.339408 120.315 -0.4561 120.967 -0.522402 121.591C-0.599136 122.193 -0.619768 122.81 -0.632921 123.327L-0.647861 123.53C-0.73252 124.888 -0.676014 126.161 -0.513698 127.417C-0.358571 128.655 -0.173964 129.753 0.0783014 130.807L0.258558 131.593C0.454066 132.516 0.634318 133.302 0.81323 133.967L0.98298 134.662L1.10049 135.003C1.2517 135.663 1.55172 136.906 1.93015 138.008C2.11741 138.5 2.32579 139.025 2.55948 139.585C2.61948 139.72 2.67786 139.853 2.76558 139.993C2.91827 140.237 3.35459 140.821 4.03306 140.795C4.40934 140.785 4.67905 140.717 4.87154 140.6C4.94084 140.558 4.99877 140.498 5.09006 140.417C5.31363 140.163 5.39297 140.018 5.53035 139.666C5.55398 139.63 5.56057 139.601 5.58513 139.561C5.69393 139.277 5.76755 139.089 5.81021 138.891L5.94444 138.494C6.05669 138.136 6.14093 137.891 6.22773 137.645C6.43605 137.253 6.708 136.844 6.96676 136.493C7.3023 135.999 7.65177 135.522 8.02638 135.05L8.47536 134.466C9.19687 133.519 9.89075 132.635 10.5512 131.703C11.0999 130.933 11.6828 130.07 12.3932 128.986L12.5591 128.713L12.6073 128.637C12.8367 128.279 13.0328 127.941 13.2109 127.615C13.5604 126.99 13.8231 126.3 14.0586 125.72C14.1634 125.463 14.2543 125.189 14.3385 124.945C14.4433 124.688 14.5455 124.432 14.6363 124.158C14.8467 123.572 15.0366 122.998 15.2135 122.403L15.356 121.98C15.4788 121.565 15.6213 121.142 15.7442 120.727C15.9073 120.144 16.0183 119.518 16.0801 119.119C16.1459 118.692 16.2109 118.337 16.2644 117.964L16.2929 117.585L16.3003 117.484C16.3113 117.309 16.3073 117.19 16.3328 117.077L16.3907 116.559C16.4477 116.112 16.4754 115.658 16.5021 115.209C16.5328 114.488 16.557 113.65 16.5487 112.759L16.5587 112.656L16.5662 112.555L16.5671 112.483L16.6649 112.979L16.6908 113.06C16.8491 113.737 17.0297 114.404 17.1727 115.091C17.4547 116.345 17.7564 117.591 18.0694 118.855C18.3856 120.163 18.6979 121.352 19.0347 122.501C19.3277 123.581 19.6771 124.557 20.1836 125.943C20.3222 126.318 20.4511 126.676 20.5898 127.05L20.6441 127.211C20.8905 127.91 21.162 128.615 21.4248 129.301L21.6234 129.81C21.6566 129.937 21.6857 130.063 21.7369 130.178C21.7694 130.23 21.7953 130.311 21.8571 130.37C21.8716 130.433 21.9057 130.488 21.9316 130.568L22.0084 130.884L22.0698 131.208C22.1044 131.456 22.126 131.682 22.1435 131.937L22.1851 132.348L22.193 132.44C22.2749 133.143 22.3439 133.824 22.3939 134.521L22.393 134.593L22.3969 134.713L22.4012 135.025L22.4346 135.463C22.4613 136.077 22.4854 136.693 22.5284 137.294C22.5555 137.643 22.5517 137.982 22.5788 138.331L22.5906 138.542L22.6108 138.648L22.609 138.724L22.6113 138.841L22.62 139.008L22.6349 139.264C22.6691 139.776 22.713 140.305 22.7748 140.823C22.8028 141.099 22.8415 141.387 22.8515 141.675C22.877 142.021 22.8993 142.323 22.955 142.604C23.0475 143.25 23.141 143.892 23.2628 144.545C23.6457 146.876 24.742 149.165 25.7419 151.146L25.9165 151.499L25.9944 151.623C26.7014 152.984 27.4434 154.396 28.3315 155.621C28.7337 156.151 29.206 156.712 29.7261 157.317C30.2301 157.855 30.8287 158.387 31.2743 158.793L31.4247 158.92C31.8817 159.344 32.3273 159.75 32.8022 160.164C33.0145 160.35 33.2154 160.518 33.4456 160.693C33.6464 160.861 33.8766 161.036 34.0889 161.222C34.5726 161.655 35.0835 162.047 35.4805 162.335L35.5397 162.396C36.0115 162.765 36.4199 163.072 36.8119 163.392C36.9102 163.476 36.9834 163.553 37.0997 163.625L37.3804 163.842C37.622 164.035 37.8707 164.245 38.1237 164.457L38.4961 164.786C38.7995 165.038 39.1126 165.306 39.4021 165.542C39.7827 165.844 40.1617 166.144 40.5424 166.446L40.7432 166.614L40.8458 166.699L40.923 166.749C41.3932 167.115 41.8624 167.485 42.326 167.88L42.4887 168.021L42.5887 168.107L42.7675 168.314L43.0781 168.583L43.1693 168.65C43.4026 168.869 43.6474 169.107 43.8978 169.321C43.9189 169.354 43.9482 169.361 43.971 169.398L44.1898 169.555L44.267 169.605L44.4086 169.712C44.5411 169.85 44.7152 170.009 45.0008 170.126C45.4134 170.287 45.8867 170.239 46.2511 170.017C46.5104 169.86 46.7339 169.606 46.8493 169.292C47.0015 168.884 46.9177 168.405 46.8613 168.049L46.8322 167.923C46.741 167.398 46.6524 166.872 46.5498 166.329L46.5305 166.219L46.4796 165.985L46.3828 165.485C46.3393 165.15 46.235 164.751 46.0859 164.287C46.0009 163.998 45.9288 163.73 45.8618 163.431C45.6929 162.663 45.6004 162.017 45.5346 161.38L45.5251 161.286C45.5439 161.203 45.5439 161.203 45.5325 161.185L45.5223 160.976L45.5118 160.886L45.4886 160.198C45.479 159.645 45.4571 159.078 45.4378 158.509C45.415 158.015 45.3922 157.52 45.3695 157.025L45.2668 157.088C45.3554 156.697 45.3317 156.274 45.3203 155.798L45.3014 155.422C45.2818 154.972 45.2458 154.536 45.2011 154.079C45.166 153.639 45.0967 153.222 45.0314 152.779L45.0121 152.668C44.8866 151.778 44.6552 150.876 44.2802 149.7L44.2518 149.621L44.2259 149.54L44.1491 149.683C43.4926 147.299 42.4559 144.953 41.0262 142.749C39.9241 141.023 38.422 139.275 36.4266 137.39C36.1411 137.127 35.8557 136.863 35.5745 136.601L35.524 136.56L35.2386 136.296L34.9434 136.017L34.8825 135.954L34.832 135.913C34.4044 135.496 33.9083 135.049 33.3023 134.619C33.1111 134.467 32.915 134.346 32.7199 134.221L32.5742 134.141L32.4945 134.093C32.3081 133.988 32.1511 133.89 32.012 133.781C31.4792 133.428 30.9854 133.098 30.5209 132.775L30.4412 132.727C30.1744 132.527 29.9653 132.386 29.779 132.28C29.604 132.193 29.4316 132.105 29.2469 132.002L29.1671 131.954L28.9062 131.651C28.7492 131.553 28.5808 131.436 28.4418 131.328L28.3115 131.238C28.1431 131.122 28.0154 131.032 27.8975 130.956C27.69 130.818 27.4646 130.69 27.2581 130.546L26.9327 130.332L26.7659 130.219L26.6861 130.171L26.5064 130.036L26.4405 130.005C26.2721 129.889 26.1924 129.841 26.1151 129.791C25.8083 129.612 25.517 129.452 25.2087 129.3C24.9832 129.172 24.7937 129.022 24.5847 128.88L24.4245 128.738C24.322 128.653 24.2334 128.585 24.1438 128.521C24.092 128.36 24.0149 128.163 23.9518 127.983L23.9145 127.884L23.7645 127.491L23.6032 127.081L23.5602 126.939L23.497 126.759L23.4598 126.659L23.347 126.366L23.2181 126.008L23.1054 125.714C22.9181 125.223 22.7463 124.722 22.559 124.231C21.7897 122.159 21.264 120.057 20.7641 118.037L20.4009 116.613L20.2909 116.172C20.1979 115.791 20.104 115.415 20.0111 115.034C19.8971 114.473 19.7792 113.94 19.6515 113.391L19.573 113.073L19.5301 112.931L19.4792 112.697L19.4314 112.507C19.1994 111.559 18.96 110.566 18.732 109.591C18.6254 109.075 18.5302 108.578 18.439 108.053L18.4123 107.897L18.4044 107.806L18.3939 107.715C18.2907 107.126 18.1737 106.52 18.0549 105.912L17.8974 105.162L17.8724 105.009C17.7054 104.165 17.5146 103.289 17.3646 102.438C17.1568 101.11 16.9792 99.7177 16.8871 98.8066L16.8718 98.6691L16.8582 98.5341L16.8389 98.4241L16.8091 98.2237C16.7577 97.7965 16.7161 97.3848 16.6622 96.9591C16.7854 97.3427 16.9915 97.751 17.4121 98.4624C17.7419 98.989 18.1546 99.6084 18.7322 100.418C19.1045 100.893 19.5076 101.35 19.9246 101.824C20.9513 102.965 22.0889 104.018 22.841 104.721C23.8282 105.647 24.8764 106.557 26.0785 107.52L26.1784 107.606C26.2175 107.629 26.2582 107.655 26.2907 107.706C27.0845 108.363 27.6253 108.808 28.1922 109.215C28.5599 109.497 28.9651 109.759 29.3677 110.023L29.7843 110.303C30.8727 111.045 31.9871 111.869 33.2159 112.841L33.6975 113.225C35.4338 114.662 36.9354 116.217 38.1314 117.861L38.398 118.208L38.6734 118.574C38.7059 118.626 38.7563 118.667 38.7904 118.721L38.8343 118.791L38.8961 118.85L38.9992 118.981L39.1049 119.11C39.3308 119.431 39.5282 119.673 39.9768 119.812C40.3684 119.939 40.7846 119.88 41.1311 119.669C41.3056 119.563 41.4614 119.393 41.5741 119.228C41.7718 118.893 41.7788 118.598 41.7483 118.323L41.7306 118.216C41.6819 117.64 41.6185 117.12 41.5412 116.612L41.4943 116.35L41.3947 115.54L41.3313 115.02L41.3088 114.865C41.2558 114.436 41.2019 114.01 41.1392 113.565C41.0353 112.901 40.8362 112.198 40.6905 111.66C40.3239 110.31 39.7814 108.946 39.3815 107.928C39.1074 107.224 38.7772 106.505 38.382 105.681L38.3561 105.6L38.3123 105.53L38.1873 105.291C38.0566 105.009 37.9316 104.769 37.8107 104.503C37.3085 103.429 36.8116 102.449 36.3205 101.512C35.7319 100.419 35.047 99.478 34.2532 98.3632L34.2124 98.4847C33.9794 97.9995 33.6251 97.5129 33.1611 96.9247C32.8563 96.5512 32.4832 96.1477 32.0524 95.6861L31.9792 95.6088C31.1906 94.7344 30.2174 93.8253 29.0153 92.862L29.0378 93.0167L28.8624 92.7365C28.0532 92.0895 27.531 91.6799 26.9981 91.3269C26.4467 90.9387 25.8942 90.594 25.2189 90.2059L24.7983 89.953C24.4663 89.768 24.1409 89.554 23.8171 89.3425L23.5422 89.1694L23.2575 88.9807C23.0598 88.8574 22.862 88.734 22.6659 88.6133C22.3405 88.3992 22.0085 88.2142 21.6677 88.0095C21.3244 87.8064 20.9858 87.6505 20.4666 87.4325C19.9149 87.1626 19.3925 86.9 18.8448 86.6026L18.6601 86.5L18.5926 86.4658C18.2313 86.2736 17.9132 86.1052 17.626 85.9181C17.2501 85.663 16.8654 85.3883 16.5059 85.1198C16.3643 85.0125 16.2253 84.9036 16.0683 84.8056L16.0178 84.7647L15.9195 84.6812L15.8169 84.5967L15.5599 84.4126C15.4086 84.2898 15.2468 84.1446 15.103 83.9885C14.9762 83.8256 14.8046 83.6648 14.5631 83.4714C14.3566 82.2646 14.1184 81.0806 13.9083 80.0943L13.7904 79.5607C13.5287 78.2657 13.2598 76.9535 13.0177 75.6501C12.9402 75.2602 12.8529 74.8548 12.7779 74.4635L12.7051 74.1209L12.6178 73.7155L12.5362 73.3532L12.4998 73.1819C12.3964 72.7111 12.2889 72.2678 12.1675 71.808L12.0986 71.5848C11.817 70.5239 11.4895 69.1972 11.0413 67.9439C10.3524 65.9666 9.48762 63.9744 8.46314 62.0327C8.21317 61.5543 7.97364 61.0982 7.72367 60.6198C7.88384 60.7624 8.05882 60.8494 8.2272 60.9655L8.38422 61.0635L8.81618 61.3345C9.26045 61.6196 9.72175 61.8979 10.1814 62.1736C10.7199 62.5016 11.3155 62.8415 12.0308 63.1803C12.458 63.4041 12.9 63.5724 13.4176 63.7878L13.9075 63.9985C14.8507 64.3957 15.7883 64.8178 16.7234 65.2414L17.822 65.734C19.0833 66.2995 20.3456 66.8609 21.6095 67.4249C22.687 67.8837 23.819 68.356 24.8738 68.7784L24.9715 68.8157L25.0961 68.8618L25.2474 68.9166L25.411 68.9855C26.9345 69.585 28.3427 70.1079 29.6027 70.5524L33.5682 71.9166C34.3594 72.1841 35.1611 72.474 35.9571 72.7888L36.2338 72.8856L36.5781 73.0165L37.5824 73.3981C38.3289 73.6677 39.063 73.9234 39.7972 74.1791L40.0756 74.2784L40.2253 74.3307C40.6445 74.4626 41.0751 74.6127 41.4739 74.7571C41.9338 74.9144 42.4076 75.0598 42.865 75.2187C42.9162 75.3344 42.9859 75.4854 43.0916 75.6146C43.3622 75.9336 43.6328 76.2526 43.8701 76.5919C44.7889 77.9459 45.6309 79.4434 46.3233 80.7416C46.6619 81.3559 46.9663 81.9947 47.2746 82.606L47.4492 82.9583C47.8087 83.6853 48.1055 84.4253 48.4169 85.2281C48.4542 85.3273 48.4687 85.3901 48.5012 85.442C48.6139 85.7352 48.7217 86.0601 48.8165 86.3642L49.084 87.097C49.2712 87.5885 49.3958 88.093 49.5383 88.5866L49.6347 88.8933C49.9576 90.0258 50.3536 91.3825 50.7105 92.7164C50.7986 93.0496 50.8868 93.3829 50.9596 93.7254C51.1692 94.5185 51.3867 95.4035 51.6565 96.2531L51.906 96.9968L51.9506 97.1416C52.2949 98.1895 52.662 99.2736 53.069 100.308C53.5272 101.459 54.014 102.542 54.531 103.56C55.0464 104.576 55.6945 105.611 56.4616 106.717C57.7825 108.6 59.2928 110.321 60.923 111.895L61.2084 112.158C61.5036 112.437 61.8102 112.734 62.1044 113.017L62.2558 113.14C62.6119 113.483 62.9802 113.839 63.4701 114.05C63.7973 114.187 64.2363 114.164 64.5762 113.982L64.6455 113.94C64.82 113.834 65.0411 113.65 65.1179 113.506C65.26 113.201 65.2862 113.164 65.3332 112.82C65.3687 112.605 65.3275 112.387 65.288 112.171L65.2661 112.062C65.2582 111.97 65.2411 111.909 65.2332 111.817L65.2113 111.709L65.192 111.599C65.1508 111.38 65.1047 111.193 65.0749 110.993C64.9916 109.711 65.0956 108.462 65.2 107.407C65.2895 106.554 65.361 105.711 65.4365 104.842L65.5221 103.869C65.6194 102.65 65.6939 101.54 65.6949 100.473C65.7023 99.4544 65.5804 98.3429 65.4792 97.5305L65.4024 96.757C65.2709 95.5511 65.0002 94.3152 64.757 93.2023L64.7013 92.921C64.4596 91.8107 64.1171 90.6866 63.6778 89.4529L63.6162 89.2755C63.4071 88.6755 63.1712 88.0668 62.8944 87.5115C62.6046 86.9356 62.2783 86.3352 61.9104 85.7137C61.5481 85.1352 61.1705 84.566 60.782 84.025C60.4303 83.5368 60.0149 83.0658 59.4409 82.4943C58.9287 81.9819 58.3668 81.5034 57.8397 81.0465L57.7511 80.9786L57.8177 81.085C57.5477 80.8122 57.2305 80.5716 56.9411 80.3357L56.5491 80.0153L56.4074 79.908L56.4986 79.9744L56.6525 80.0277L56.9153 80.1078L57.0692 80.1611L57.1643 80.2C57.9011 80.4541 58.7484 80.7376 59.5484 81.0249C61.8118 81.9232 64.1019 82.9772 66.8043 84.3106L67.0061 84.4064C68.217 84.999 69.2407 85.4906 70.3142 85.9769L71.3216 86.4031L71.4168 86.4419C72.3307 86.8318 73.331 87.2409 74.2472 87.7476C75.0446 88.1834 75.8362 88.644 76.6686 89.1301L76.7361 89.1643L76.8549 89.2353L77.9118 89.8535C78.2145 90.0313 78.4878 90.2018 78.7921 90.3821C78.7478 90.5774 78.789 90.7959 78.8846 91.0279C79.0121 91.2655 79.1109 91.5421 79.2073 91.8489C79.9265 94.6782 80.2944 97.2124 80.3172 99.6199L80.3751 99.5596L80.3071 99.7227L80.3176 99.813L80.3716 99.6333L80.3036 100.402C80.2975 101.082 80.3053 101.78 80.2992 102.46C80.3096 104.005 80.371 105.178 80.5288 106.268C80.5771 106.65 80.6432 107.022 80.6889 107.406L80.7758 108.077C80.8546 108.588 80.9345 109.094 81.002 109.587C81.3528 112.06 82.0497 114.588 83.079 117.035C83.9283 119.037 85.1028 120.912 86.054 122.318C86.3351 122.727 86.5812 123.086 86.8771 123.44C87.1591 123.777 87.4688 124.119 87.7688 124.445L87.9745 124.661C88.7712 125.509 89.5874 126.32 90.2119 126.932L90.333 127.052C90.5689 127.27 90.8023 127.49 91.0079 127.705L91.486 128.163C91.7535 128.438 92.0487 128.717 92.2982 129.002C92.6827 129.424 93.171 129.632 93.6345 129.568C93.8349 129.543 94.0142 129.484 94.1862 129.38C94.5506 129.158 94.798 128.789 94.8484 128.372C94.8766 128.111 94.8257 127.877 94.7814 127.614L94.7086 127.271C94.6345 126.808 94.5424 126.355 94.491 125.928C94.413 125.345 94.3832 124.686 94.3447 123.861C94.3723 122.49 94.4526 121.277 94.5939 120.127C94.7592 118.745 94.7202 117.268 94.693 116.002C94.6843 115.377 94.6413 114.776 94.6058 114.142L94.5949 113.859L94.591 113.739C94.5603 113.153 94.5309 112.687 94.4748 112.213C94.3383 111.038 94.0805 109.863 93.8494 108.843L93.7539 108.464C93.585 107.696 93.3718 106.665 93.0851 105.675C92.861 104.82 92.5685 103.934 92.1633 102.823C91.8958 102.09 91.5892 101.334 91.2858 100.623L91.2371 100.506C90.9849 99.9107 90.6301 99.231 90.0959 98.2986L89.81 97.842L89.6386 97.5343L89.5622 97.4124C89.4307 97.2023 89.3154 96.9786 89.1838 96.7685L89.824 97.2532L90.6416 97.7949L90.8507 97.9364L91.0581 98.0753L91.124 98.1069C92.2172 98.8964 93.2137 99.6445 94.1978 100.379C95.1552 101.104 96.1986 101.967 97.3396 102.946C98.6733 104.119 99.9644 105.343 101.177 106.515L101.24 106.577L101.364 106.695C102.066 107.358 102.727 107.994 103.407 108.623C103.802 108.988 104.192 109.378 104.587 109.743L104.639 109.787L104.689 109.828L104.737 109.87L104.923 110.047L105.435 110.56L105.545 110.661C105.746 111.023 105.952 111.385 106.196 111.741C106.274 111.866 106.38 111.995 106.456 112.117L106.566 112.293C106.664 112.449 106.781 112.596 106.88 112.754C106.956 112.876 107.034 113.001 107.093 113.134C107.283 113.477 107.448 113.813 107.587 114.115C107.685 114.346 107.799 114.567 107.912 114.788C108.019 114.992 108.133 115.213 108.235 115.416C108.586 116.169 108.924 116.935 109.242 117.708L109.704 118.831C110.173 119.925 110.737 121.205 111.403 122.422C111.762 123.074 112.168 123.723 112.551 124.335L113.057 125.142C113.222 125.407 113.386 125.669 113.568 125.92C113.796 126.243 114.049 126.573 114.292 126.884L114.685 127.397C115.098 127.944 115.463 128.374 115.855 128.767L115.976 128.887C116.794 129.696 117.723 130.607 118.727 131.329C120.721 132.753 123.136 133.971 125.903 134.95C126.236 135.063 126.571 135.174 126.893 135.269L127.072 135.328C127.294 135.412 127.52 135.468 127.711 135.545C127.922 135.61 128.141 135.695 128.35 135.762L128.599 135.854L128.932 135.967L129.431 136.147C130.001 136.334 130.57 136.518 131.132 136.685C131.702 136.872 132.246 137.05 132.787 137.23L133.148 137.347L133.32 137.389L133.472 137.44L133.68 137.507C133.889 137.574 134.072 137.634 134.251 137.694C134.433 137.752 134.613 137.814 134.795 137.872C135.288 138.009 135.762 138.154 136.171 137.93L136.397 137.793C136.517 137.72 136.629 137.627 136.742 137.461C136.918 137.211 136.95 137.07 137.008 136.816C137.06 136.52 136.971 136.187 136.874 135.952C136.758 135.733 136.626 135.522 136.527 135.364C136.359 135.13 136.26 134.971 136.143 134.824C135.972 134.591 135.811 134.374 135.657 134.127C135.39 133.735 135.148 133.348 134.906 132.962C134.366 131.986 133.912 130.955 133.496 129.947L133.34 129.583L132.79 128.32L132.61 127.921L132.512 127.69L131.897 126.249C131.636 125.68 131.377 125.114 131.09 124.536L130.927 124.202C130.698 123.757 130.486 123.306 130.241 122.875C129.901 122.258 129.469 121.528 128.94 120.836C128.58 120.375 128.186 119.937 127.812 119.534L127.741 119.459L127.67 119.38C126.818 118.444 125.981 117.599 125.131 116.859C124.706 116.487 124.282 116.114 123.844 115.754C123.26 115.285 122.638 114.864 122.218 114.612C121.371 114.063 120.418 113.65 119.712 113.327C119.387 113.187 119.077 113.036 118.766 112.885C117.916 112.485 117.053 112.136 116.006 111.805C115.644 111.685 115.276 111.597 114.896 111.487L114.783 111.46L114.614 111.416L114.265 111.316L114.15 111.286C113.42 111.077 112.668 110.833 111.902 110.525C111.421 110.334 110.891 110.173 110.397 110.036L110.273 109.99L109.309 109.752C109.225 109.731 109.157 109.701 109.073 109.68C108.852 109.521 108.59 109.441 108.309 109.417L108.215 109.306L108.083 109.169L108.009 109.091C107.888 108.971 107.776 108.871 107.68 108.758C107.577 108.627 107.476 108.545 107.376 108.459L107.282 108.348L106.763 107.865C106.363 107.452 105.944 107.055 105.51 106.667L105.348 106.522L105.225 106.404L105.053 106.243L104.841 106.057L104.779 105.998L104.496 105.733L103.824 105.124L102.684 104.027C102.084 103.449 101.481 102.87 100.864 102.304C99.9159 101.401 98.8651 100.492 97.7835 99.6025C96.9898 98.9461 96.139 98.2778 95.0685 97.5247C94.6813 97.2515 94.3006 96.9492 93.9134 96.676C93.3774 96.2784 92.8284 95.86 92.2769 95.4718L92.2489 95.5855L92.2362 95.4464L92.0946 95.3391C91.4798 94.8891 90.829 94.461 90.2163 94.0598C91.1688 94.2794 92.1175 94.3796 93.1989 94.4994C94.4252 94.6242 95.6044 94.6343 96.9939 94.6348C98.2359 94.6319 99.566 94.5717 100.877 94.4519C102.129 94.3461 103.386 94.1366 104.749 93.8671C105.974 93.6057 107.181 93.3551 108.392 93.0308L108.866 92.9109L109.343 92.7894L109.595 92.733C110.197 92.5855 110.74 92.4234 111.288 92.2623L111.751 92.1242L112.011 92.0414C112.251 91.9669 112.51 91.8815 112.75 91.807C112.956 91.7569 113.17 91.6736 113.364 91.6053L113.509 91.5642C113.766 91.4829 114.042 91.3865 114.312 91.3193C115.206 91.0659 116.089 90.8692 117.157 90.6282C117.6 90.5311 117.96 90.4554 118.328 90.3533L118.598 90.286C118.993 90.1926 119.371 90.106 119.776 90.0282C120.916 89.8224 122.041 89.668 123.144 89.5562C123.509 89.5277 123.874 89.4993 124.221 89.4818L124.859 89.4307C125.199 89.396 125.454 89.3843 125.714 89.3015C125.811 89.264 125.925 89.2198 126.012 89.1667C126.358 88.9561 126.624 88.5762 126.671 88.2325C126.714 87.8441 126.648 87.2793 126.169 86.8935C125.945 86.6892 125.639 86.5852 125.354 86.4687L125.256 86.4314L125.122 86.3698L124.956 86.2983C124.445 86.0538 123.951 85.7958 123.539 85.5627C123.091 85.3051 122.629 85.0268 122.176 84.7221L122.046 84.6329C121.446 84.2457 121.004 83.9591 120.554 83.699C118.542 82.5512 116.197 81.7491 113.209 81.1481C112.251 80.9534 111.263 80.8304 110.321 80.7011L110.16 80.6769L110.086 80.6718L109.404 80.5781L109.23 80.5658C108.083 80.4144 106.908 80.2584 105.755 80.2571C104.292 80.2515 102.875 80.3605 101.307 80.4936C100.577 80.5505 99.8146 80.6739 99.2453 80.755L99.0449 80.7801C98.4103 80.8758 97.4498 81.0228 96.4982 81.1895C95.9206 81.2971 95.3601 81.3979 94.8005 81.4946L94.539 81.5354L94.4469 81.5412C93.8848 81.6394 93.3088 81.7496 92.7467 81.8478C92.1528 81.9689 91.5506 82.1165 90.9778 82.2714L90.7708 82.3256C90.198 82.4804 89.6139 82.6171 89.0158 82.7372L88.9531 82.7502L88.8626 82.7586L88.6806 82.966C87.8596 83.1034 87.1263 83.2341 86.4435 83.4056C85.715 83.5835 85.0071 83.7488 84.2884 83.9423C84.0993 83.9856 83.9046 84.0538 83.7156 84.0971L83.5542 84.145C83.1973 84.2654 82.8665 84.3483 82.5341 84.4286C82.2823 84.485 82.0485 84.5304 81.7968 84.5867C81.5271 84.654 81.228 84.7141 80.9609 84.7798L80.7065 84.8377L80.4728 84.8831C80.4434 84.8759 80.3628 84.8998 80.2837 84.9264C79.7689 85.021 79.311 85.1274 78.8229 85.2307L78.2738 85.3497C77.8225 85.427 77.4037 85.4883 76.9664 85.5142C76.8019 85.5175 76.6349 85.5223 76.459 85.5075L76.2945 85.5108C76.2025 85.5166 76.1121 85.525 76.02 85.5308C75.945 85.5299 75.8823 85.5429 75.8099 85.5404C75.2508 85.2248 74.7691 84.9876 74.2679 84.7586C73.6689 84.4924 73.0699 84.2263 72.475 83.9611C71.7922 83.6742 71.1273 83.3764 70.4511 83.0605C69.6674 82.6917 68.8732 82.3006 68.0895 81.9318L67.7534 81.7743L67.6834 81.7417C66.1935 81.0035 64.7222 80.3006 63.1841 79.6383C61.9316 79.0925 60.5593 78.5478 59.0138 77.9867C58.6963 77.8645 58.3748 77.7699 58.0573 77.6477C58.6845 77.6532 59.3059 77.6157 59.9437 77.5646C61.058 77.471 62.2759 77.3107 63.7609 77.0848L64.0877 77.0294L63.9386 77.0233C65.3178 76.8152 66.6459 76.4913 67.9742 76.049C68.8812 75.7375 69.7728 75.3674 70.6587 75.0222L70.7737 74.9738L71.6473 74.6146C72.3539 74.3282 72.988 74.0394 73.5831 73.7277C74.0046 73.518 74.4204 73.2653 74.8182 73.0234L75.3212 72.7176C75.9988 72.3056 76.6624 71.8771 77.3189 71.4314L78.1457 70.8786L78.5337 70.6211C79.1281 70.2347 79.7429 69.8358 80.3095 69.4448C80.9171 69.0002 81.5669 68.5836 82.1972 68.1753L82.6196 67.8935C83.3704 67.4119 84.1076 66.9422 84.8698 66.4788C85.0443 66.3727 85.2343 66.2572 85.4088 66.1511C86.0145 65.7828 86.4913 65.5144 86.9592 65.3052C87.7351 64.9767 88.489 64.6867 89.2477 64.4439C89.4244 64.3866 89.6021 64.3251 89.7587 64.23C89.7946 64.2081 89.81 64.1988 89.8459 64.1769C90.2985 63.8301 90.5012 63.4633 90.4954 62.9618C90.4824 62.4826 90.2192 62.0624 89.7596 61.7867C89.4342 61.5726 88.992 61.5513 88.6101 61.5185C88.0865 61.4464 87.6062 61.3301 87.0829 61.1396C86.7948 61.0247 86.505 60.9071 86.2283 60.8104C85.6252 60.5717 85.0783 60.349 84.5191 60.1804C83.8508 59.9564 83.1719 59.7889 82.5197 59.6302C81.2457 59.316 79.9462 59.1139 78.6017 59.0323C77.5406 58.979 76.3727 58.987 75.1566 59.0709C74.5913 59.1245 74.0194 59.2072 73.4638 59.2763L73.3734 59.2847C72.5563 59.3947 71.8801 59.5372 71.2349 59.6895C69.9043 60.0149 68.81 60.2934 67.7294 60.7068C67.5158 60.7901 67.3211 60.8584 67.1085 60.9375L66.7694 61.0469C65.9862 61.3297 65.1778 61.6063 64.4116 61.9503L64.3156 61.9837C63.8314 62.2064 63.2665 62.4531 62.7301 62.7793L62.6429 62.8323C62.2091 63.096 61.7338 63.4065 61.1263 63.8511C60.575 64.2328 59.9961 64.6098 59.4018 64.9962C58.8588 65.3514 58.3018 65.6901 57.7866 66.0499C57.5541 66.2163 57.3242 66.3811 57.0804 66.5294C56.813 66.7135 56.5292 66.9111 56.2634 67.0978C55.9283 67.3266 55.5638 67.5482 55.2173 67.7588C55.0094 67.8852 54.8195 68.0007 54.6116 68.1271C54.4191 68.2441 54.239 68.3751 54.0311 68.5015C53.7652 68.6882 53.4815 68.8858 53.2043 69.0543L53.0118 69.1714C52.8219 69.2868 52.6499 69.3914 52.4688 69.5266L52.2275 69.6733C52.0889 69.7575 51.9421 69.8683 51.8035 69.9525C51.6111 70.0696 51.4145 70.2141 51.2246 70.3296C50.9922 70.496 50.7689 70.6317 50.5251 70.78C50.2119 70.9703 49.9234 71.1207 49.6348 71.2711L49.5476 71.3241L49.2606 71.4771C49.0234 71.5962 48.8001 71.732 48.5629 71.8512C48.1691 72.0655 47.7893 72.2964 47.4037 72.4843C47.2358 72.5613 47.0581 72.6228 46.8788 72.6816C46.4371 72.8535 46.0288 73.005 45.635 73.2193C44.778 72.9202 44.0145 72.6573 43.2623 72.4126C42.7211 72.233 42.1773 72.055 41.6336 71.877L41.1762 71.7181C40.5665 71.5085 39.9389 71.3099 39.3293 71.1003C38.4526 70.8095 37.5549 70.4849 36.7028 70.1541L36.6344 70.1241L35.3826 69.653C34.5419 69.3404 33.692 69.0584 32.8626 68.7639C32.4052 68.605 31.9289 68.4612 31.4602 68.2841L30.4883 67.9545C29.9348 67.7609 29.3756 67.5923 28.8271 67.3671C28.0538 67.0886 27.2872 66.781 26.5303 66.4891L25.8881 66.2276L25.7245 66.1587C24.7365 65.7637 23.9308 65.4333 23.2073 65.1211C23.9532 65.1296 24.701 65.0618 25.3567 64.9998C25.6785 64.9761 25.9961 64.9513 26.3163 64.925C26.8636 64.8823 27.3956 64.849 27.9512 64.7799C28.8407 64.6725 29.7678 64.5458 30.8072 64.3723L30.6989 64.3916C31.1958 64.308 31.6952 64.2228 32.1751 64.1459C32.7461 64.0674 33.3987 63.9608 34.0732 63.8157C34.7047 63.6753 35.3206 63.5158 35.913 63.3526C37.0204 63.016 38.1906 62.6663 39.3453 62.258C40.6159 61.7971 41.7333 61.2897 42.7491 60.6936C42.9057 60.5984 43.0776 60.4938 43.2342 60.3986C44.1017 59.8712 44.948 59.3101 45.7748 58.7573L45.8954 58.6839C46.6725 58.1649 47.4993 57.6121 48.2659 57.0028L48.1093 57.0979C48.6558 56.669 49.172 56.305 49.6473 55.9945C49.9579 55.8057 50.2596 55.5972 50.5727 55.4068C50.832 55.2492 51.1091 55.0807 51.357 54.9049L51.6188 54.7458C52.0525 54.4821 52.4797 54.2474 52.9613 54.0262L53.0779 53.9804C53.3942 53.8347 53.6827 53.6843 53.9893 53.523C54.3357 53.3124 54.5611 52.9819 54.6374 52.6454C54.7712 52.0555 54.4853 51.5989 54.2169 51.3287C53.9788 51.0616 53.5832 50.9618 53.2591 50.8687C53.0328 50.8129 52.8245 50.7462 52.5982 50.6904C52.3132 50.6201 52.021 50.5326 51.736 50.4624C51.4984 50.3884 51.2623 50.317 51.0246 50.243C50.6347 50.1183 50.2725 49.9983 49.8826 49.8736L49.2102 49.677C48.8594 49.5751 48.5086 49.4733 48.1577 49.3714C46.9798 49.0238 46.0631 48.7823 45.2084 48.6C44.1361 48.3816 43.0256 48.1362 41.9191 48.0102C40.8213 47.904 39.7114 47.8517 38.5979 47.8732C37.7909 47.8804 36.8875 47.9712 35.8186 48.1375L35.3397 48.2102C34.4574 48.3347 33.5596 48.4686 32.696 48.657C32.2562 48.7525 31.8088 48.8812 31.3664 48.9783L31.2426 49.007C30.9369 49.0961 30.6225 49.1655 30.3168 49.2546C30.0944 49.3182 29.89 49.3709 29.6634 49.4334C29.2519 49.5403 28.8209 49.6555 28.4126 49.8071C28.0402 49.9368 27.6906 50.1028 27.3254 50.2496L27.1437 50.3386L26.3661 50.6645C25.754 50.9149 25.1623 51.1528 24.5641 51.4198L24.4948 51.4619C24.4768 51.4728 24.4768 51.4728 24.4589 51.4838C22.6282 52.3066 20.9015 53.335 19.227 54.328L18.2429 54.9012C17.4873 55.3356 16.7306 55.7741 15.9929 56.1975L15.6685 56.3697L15.1874 56.6371C14.6926 56.9165 14.2075 57.2114 13.6704 57.4628C13.3273 57.5997 12.9638 57.7491 12.6191 57.8834C12.2108 58.035 11.8025 58.1865 11.3989 58.3853C11.0559 58.5222 10.6876 58.6244 10.3372 58.7156L10.1327 58.7683L9.9241 58.8199C9.55962 58.5831 9.17973 58.3556 8.79566 58.127C8.06105 57.6782 7.28735 57.2066 6.52427 56.6784C5.85895 56.1875 5.19106 55.6981 4.52574 55.2072L3.94739 54.7816C3.53905 54.4747 3.16664 54.1459 2.77464 53.8255L2.63559 53.7166L2.57377 53.6575C2.20136 53.3288 1.82476 52.999 1.41898 52.6905C0.388435 51.888 -0.341867 51.2933 -1.10225 50.6166C-1.90649 49.8698 -2.66973 49.0301 -3.29899 48.3704L-3.38355 48.275L-3.43401 48.234C-3.97438 47.5238 -4.7449 47.5553 -5.24537 47.8596Z" fill="#E1EDDE"/>
</svg>
