<svg width="99" height="39" viewBox="0 0 99 39" fill="none" xmlns="http://www.w3.org/2000/svg">
<path d="M4.88558 12.3103C6.43046 9.28162 7.88349 6.45992 9.30589 3.64102C9.75961 2.74334 10.244 1.84286 10.7895 0.973139C11.5467 -0.257333 12.9384 -0.346821 13.8181 0.852888C15.6357 3.37256 17.3894 5.92019 19.1764 8.43986C19.9642 9.55008 20.7519 10.6603 21.6288 11.9187C22.1743 10.9008 22.6587 10.0591 23.1124 9.18933C24.2926 6.8822 25.445 4.57227 26.6559 2.2931C26.9287 1.75337 27.3518 1.27237 27.8361 0.911615C28.2008 0.67391 28.6545 0.643148 29.0776 0.794161C30.2272 1.51287 31.4993 2.20361 32.3483 3.19078C34.4081 5.5902 36.2842 8.14063 38.2216 10.6295C38.4638 10.9288 38.7059 11.2588 39.0706 11.7398C39.7052 10.87 40.2508 10.1206 40.7964 9.34034C42.6419 6.73118 44.4902 4.09126 46.3969 1.54363C47.4269 0.192908 48.9718 0.254432 50.2411 1.36186C52.7546 3.5823 54.1492 6.55221 56.0253 9.18933C56.3593 9.63957 56.6906 10.0898 56.994 10.5708C57.2668 10.9903 57.5396 11.049 57.8708 10.6603C58.962 9.49136 60.0838 8.31961 61.1415 7.1199C62.1408 5.98172 63.1095 4.78201 64.0782 3.61306C64.8353 2.71258 65.5924 1.78133 66.3802 0.942377C67.1679 0.103419 68.3788 0.0418956 68.9244 1.0039C69.6815 2.38259 70.2855 3.79204 70.7699 5.29097C71.3461 6.91016 71.7998 8.59087 72.2841 10.2688L72.5569 10.2996C73.3753 9.28162 74.2215 8.29165 75.0093 7.27091C76.5541 5.32174 78.0684 3.37256 79.6105 1.42338C80.7935 -0.016831 82.6084 0.492136 83.5465 1.78133C84.9104 3.70255 85.8179 5.92019 86.2131 8.23012C86.4859 9.67033 86.7559 11.1105 87.0287 12.548C87.1206 12.8779 87.2403 13.2079 87.3934 13.5379C88.6348 12.0698 89.6954 10.6295 90.9368 9.34034C92.9939 7.18143 95.115 5.112 97.2333 3.04257C97.9292 2.38259 98.0516 2.44131 98.5666 3.25231C99.2013 4.24228 99.1706 4.21152 98.2632 5.02251C95.8109 7.15066 93.5701 9.49136 91.5409 12.039C90.7225 13.0905 89.8763 14.0777 88.9967 15.0397C88.1199 15.9989 86.8478 16.2981 86.2437 15.6689C85.8179 15.2494 85.5145 14.7684 85.3335 14.1979C84.8186 12.19 84.3955 10.1513 83.9724 8.10987C83.5771 6.10197 82.7003 4.21151 81.3976 2.62309C80.7323 3.37256 80.067 4.00178 79.5214 4.75124C78.28 6.40119 77.0997 8.08191 75.8582 9.72906C75.0705 10.7498 74.2215 11.709 73.3141 12.6095C73.0413 12.8779 72.5263 12.8779 72.1032 13.029C71.9501 13.0905 71.7692 13.1185 71.4073 13.2387C71.0733 12.699 70.7699 12.1285 70.5277 11.5608C69.6203 8.8901 68.7713 6.19146 67.9251 3.49281C67.8638 3.28307 67.772 3.10129 67.6217 2.71258L66.138 4.45202C64.2007 6.76195 62.2633 9.09984 60.2647 11.379C59.7804 11.8908 59.2654 12.3382 58.6586 12.7297C57.4783 13.51 56.0253 13.0905 55.1457 11.709C53.7845 9.67033 52.4512 7.57014 51.0594 5.56224C50.4554 4.66176 49.6676 3.88153 48.9411 3.04257C48.5459 2.56157 48.2425 2.59233 47.8806 3.10129C46.1242 5.5902 44.3677 8.08191 42.5528 10.5401C41.7345 11.6782 41.1583 12.9982 39.7971 13.7197C39.2515 14.0189 38.7978 14.0777 38.4025 13.7784C37.7373 13.3282 37.1611 12.7605 36.6461 12.1592C35.3156 10.4198 34.1047 8.56011 32.7101 6.8822C31.5605 5.47275 30.2578 4.24228 28.866 2.7713C28.1395 4.18075 27.5021 5.3525 26.898 6.52145C25.7484 8.71112 24.5654 10.9008 23.3852 13.0905C22.5668 14.6174 20.8716 14.7376 19.8139 13.1492C17.6315 9.88007 15.3936 6.67246 13.1528 3.43128C12.9106 3.13206 12.6378 2.83283 12.365 2.5336C11.5773 4.09126 10.8202 5.62096 10.0324 7.15066C8.88279 9.39907 7.70255 11.6503 6.51954 13.8987C5.85426 15.1292 4.64341 15.5179 3.85566 14.7376C3.37132 14.1699 2.97884 13.5379 2.67543 12.85C1.82644 11.049 1.04147 9.18933 0.223104 7.3604C-0.199999 6.37043 -0.0496868 6.10197 0.918996 5.86146C1.13055 5.80274 1.31426 5.56224 1.46458 5.5902C1.67613 5.5902 1.88768 5.71045 2.01016 5.89223C2.52512 7.03041 2.97884 8.19936 3.4938 9.34034C3.88628 10.2688 4.34 11.2 4.88558 12.3103Z" fill="#E69637"/>
<path d="M4.88558 35.3103C6.43046 32.2816 7.88349 29.4599 9.30589 26.641C9.75961 25.7433 10.244 24.8429 10.7895 23.9731C11.5467 22.7427 12.9384 22.6532 13.8181 23.8529C15.6357 26.3726 17.3894 28.9202 19.1764 31.4399C19.9642 32.5501 20.7519 33.6603 21.6288 34.9187C22.1743 33.9008 22.6587 33.0591 23.1124 32.1893C24.2926 29.8822 25.445 27.5723 26.6559 25.2931C26.9287 24.7534 27.3518 24.2724 27.8361 23.9116C28.2008 23.6739 28.6545 23.6431 29.0776 23.7942C30.2272 24.5129 31.4993 25.2036 32.3483 26.1908C34.4081 28.5902 36.2842 31.1406 38.2216 33.6295C38.4638 33.9288 38.7059 34.2588 39.0706 34.7398C39.7052 33.87 40.2508 33.1206 40.7964 32.3403C42.6419 29.7312 44.4902 27.0913 46.3969 24.5436C47.4269 23.1929 48.9718 23.2544 50.2411 24.3619C52.7546 26.5823 54.1492 29.5522 56.0253 32.1893C56.3593 32.6396 56.6906 33.0898 56.994 33.5708C57.2668 33.9903 57.5396 34.049 57.8708 33.6603C58.962 32.4914 60.0838 31.3196 61.1415 30.1199C62.1408 28.9817 63.1095 27.782 64.0782 26.6131C64.8353 25.7126 65.5924 24.7813 66.3802 23.9424C67.1679 23.1034 68.3788 23.0419 68.9244 24.0039C69.6815 25.3826 70.2855 26.792 70.7699 28.291C71.3461 29.9102 71.7998 31.5909 72.2841 33.2688L72.5569 33.2996C73.3753 32.2816 74.2215 31.2916 75.0093 30.2709C76.5541 28.3217 78.0684 26.3726 79.6105 24.4234C80.7935 22.9832 82.6084 23.4921 83.5465 24.7813C84.9104 26.7025 85.8179 28.9202 86.2131 31.2301C86.4859 32.6703 86.7559 34.1105 87.0287 35.548C87.1206 35.8779 87.2403 36.2079 87.3934 36.5379C88.6348 35.0698 89.6954 33.6295 90.9368 32.3403C92.9939 30.1814 95.115 28.112 97.2333 26.0426C97.9292 25.3826 98.0516 25.4413 98.5666 26.2523C99.2013 27.2423 99.1706 27.2115 98.2632 28.0225C95.8109 30.1507 93.5701 32.4914 91.5409 35.039C90.7225 36.0905 89.8763 37.0777 88.9967 38.0397C88.1199 38.9989 86.8478 39.2981 86.2437 38.6689C85.8179 38.2494 85.5145 37.7684 85.3335 37.1979C84.8186 35.19 84.3955 33.1513 83.9724 31.1099C83.5771 29.102 82.7003 27.2115 81.3976 25.6231C80.7323 26.3726 80.067 27.0018 79.5214 27.7512C78.28 29.4012 77.0997 31.0819 75.8582 32.7291C75.0705 33.7498 74.2215 34.709 73.3141 35.6095C73.0413 35.8779 72.5263 35.8779 72.1032 36.029C71.9501 36.0905 71.7692 36.1185 71.4073 36.2387C71.0733 35.699 70.7699 35.1285 70.5277 34.5608C69.6203 31.8901 68.7713 29.1915 67.9251 26.4928C67.8638 26.2831 67.772 26.1013 67.6217 25.7126L66.138 27.452C64.2007 29.7619 62.2633 32.0998 60.2647 34.379C59.7804 34.8908 59.2654 35.3382 58.6586 35.7297C57.4783 36.51 56.0253 36.0905 55.1457 34.709C53.7845 32.6703 52.4512 30.5701 51.0594 28.5622C50.4554 27.6618 49.6676 26.8815 48.9411 26.0426C48.5459 25.5616 48.2425 25.5923 47.8806 26.1013C46.1242 28.5902 44.3677 31.0819 42.5528 33.5401C41.7345 34.6782 41.1583 35.9982 39.7971 36.7197C39.2515 37.0189 38.7978 37.0777 38.4025 36.7784C37.7373 36.3282 37.1611 35.7605 36.6461 35.1592C35.3156 33.4198 34.1047 31.5601 32.7101 29.8822C31.5605 28.4727 30.2578 27.2423 28.866 25.7713C28.1395 27.1808 27.5021 28.3525 26.898 29.5214C25.7484 31.7111 24.5654 33.9008 23.3852 36.0905C22.5668 37.6174 20.8716 37.7376 19.8139 36.1492C17.6315 32.8801 15.3936 29.6725 13.1528 26.4313C12.9106 26.1321 12.6378 25.8328 12.365 25.5336C11.5773 27.0913 10.8202 28.621 10.0324 30.1507C8.88279 32.3991 7.70255 34.6503 6.51954 36.8987C5.85426 38.1292 4.64341 38.5179 3.85566 37.7376C3.37132 37.1699 2.97884 36.5379 2.67543 35.85C1.82644 34.049 1.04147 32.1893 0.223104 30.3604C-0.199999 29.3704 -0.0496868 29.102 0.918996 28.8615C1.13055 28.8027 1.31426 28.5622 1.46458 28.5902C1.67613 28.5902 1.88768 28.7105 2.01016 28.8922C2.52512 30.0304 2.97884 31.1994 3.4938 32.3403C3.88628 33.2688 4.34 34.2 4.88558 35.3103Z" fill="#E69637"/>
</svg>
