<svg width="41" height="40" viewBox="0 0 41 40" fill="none" xmlns="http://www.w3.org/2000/svg">
<g id="acute">
<mask id="mask0_652_19567" style="mask-type:alpha" maskUnits="userSpaceOnUse" x="0" y="0" width="41" height="40">
<rect id="Bounding box" x="0.599609" width="40" height="40" fill="#D9D9D9"/>
</mask>
<g mask="url(#mask0_652_19567)">
<path id="acute_2" d="M25.5999 33.3332C21.8777 33.3332 18.7249 32.0415 16.1416 29.4582C13.5583 26.8748 12.2666 23.7221 12.2666 19.9998C12.2666 16.2869 13.5583 13.1364 16.1416 10.5485C18.7249 7.96049 21.8777 6.6665 25.5999 6.6665C29.3129 6.6665 32.4634 7.96049 35.0513 10.5485C37.6393 13.1364 38.9333 16.2869 38.9333 19.9998C38.9333 23.7221 37.6393 26.8748 35.0513 29.4582C32.4634 32.0415 29.3129 33.3332 25.5999 33.3332ZM29.6972 26.0415L31.6555 24.0832L26.9888 19.4165V13.3332H24.2111V20.5693L29.6972 26.0415ZM3.93327 14.722V11.9443H10.5999V14.722H3.93327ZM2.2666 21.3887V18.611H10.5999V21.3887H2.2666ZM3.93327 28.0554V25.2776H10.5999V28.0554H3.93327Z" fill="#F9ECDD"/>
</g>
</g>
</svg>
