<svg width="40" height="40" viewBox="0 0 40 40" fill="none" xmlns="http://www.w3.org/2000/svg">
<g id="call_log">
<mask id="mask0_652_19554" style="mask-type:alpha" maskUnits="userSpaceOnUse" x="0" y="0" width="40" height="40">
<rect id="Bounding box" width="40" height="40" fill="#D9D9D9"/>
</mask>
<g mask="url(#mask0_652_19554)">
<path id="call_log_2" d="M20.5553 6.11125V3.3335H36.6663V6.11125H20.5553ZM20.5553 12.2224V9.44458H36.6663V12.2224H20.5553ZM20.5553 18.3335V15.5557H36.6663V18.3335H20.5553ZM31.4997 36.6668C28.1941 36.6668 24.8608 35.896 21.4997 34.3543C18.1386 32.8127 15.0413 30.6252 12.208 27.7918C9.37467 24.9585 7.18717 21.8613 5.64551 18.5002C4.10384 15.1391 3.33301 11.8057 3.33301 8.50016C3.33301 7.98164 3.50894 7.54645 3.8608 7.19462C4.21263 6.84276 4.64781 6.66683 5.16634 6.66683H11.3052C11.6941 6.66683 12.0321 6.8034 12.3191 7.07654C12.6061 7.34971 12.796 7.68536 12.8886 8.0835L13.9997 13.5279C14.0552 13.9353 14.046 14.2964 13.9719 14.6112C13.8978 14.9261 13.7496 15.1946 13.5274 15.4168L9.40243 19.5835C10.0691 20.7409 10.7983 21.8312 11.5899 22.8543C12.3816 23.8775 13.2543 24.852 14.208 25.778C15.1802 26.7687 16.2034 27.6784 17.2775 28.5071C18.3516 29.3358 19.4812 30.0742 20.6663 30.7224L24.6108 26.6946C24.8793 26.4076 25.2011 26.2062 25.5761 26.0905C25.9511 25.9747 26.3238 25.9446 26.6941 26.0002L31.9163 27.1113C32.3238 27.2224 32.6617 27.4377 32.9302 27.7571C33.1987 28.0766 33.333 28.4354 33.333 28.8335V34.8335C33.333 35.352 33.1571 35.7872 32.8052 36.139C32.4534 36.4909 32.0182 36.6668 31.4997 36.6668Z" fill="#809D79"/>
</g>
</g>
</svg>
