<svg width="41" height="40" viewBox="0 0 41 40" fill="none" xmlns="http://www.w3.org/2000/svg">
<g id="distance">
<mask id="mask0_652_19580" style="mask-type:alpha" maskUnits="userSpaceOnUse" x="0" y="0" width="41" height="40">
<rect id="Bounding box" x="0.599609" width="40" height="40" fill="#D9D9D9"/>
</mask>
<g mask="url(#mask0_652_19580)">
<path id="distance_2" d="M20.5998 36.6668C17.6554 36.6668 15.2526 36.2247 13.3915 35.3405C11.5304 34.4562 10.5998 33.3242 10.5998 31.9446C10.5998 31.1205 10.9609 30.3659 11.6831 29.6807C12.4054 28.9956 13.4007 28.4446 14.6692 28.028L15.4887 30.6946C15.035 30.8335 14.6183 31.021 14.2387 31.2571C13.859 31.4932 13.572 31.7224 13.3776 31.9446C13.8128 32.4632 14.7433 32.9169 16.1692 33.3057C17.5952 33.6946 19.072 33.8891 20.5998 33.8891C22.1276 33.8891 23.6114 33.6946 25.0512 33.3057C26.491 32.9169 27.4285 32.4632 27.8637 31.9446C27.6693 31.7409 27.3869 31.521 27.0165 31.2849C26.6461 31.0488 26.2248 30.852 25.7526 30.6946L26.5443 28.028C27.8128 28.4446 28.8058 28.9956 29.5234 29.6807C30.241 30.3659 30.5998 31.1205 30.5998 31.9446C30.5998 33.3242 29.6693 34.4562 27.8081 35.3405C25.947 36.2247 23.5443 36.6668 20.5998 36.6668ZM20.5998 32.0557C20.2757 32.0557 19.9887 31.9608 19.7387 31.771C19.4887 31.5812 19.3081 31.3335 19.197 31.028C18.5396 29.0187 17.7156 27.3474 16.7248 26.0141C15.7341 24.6807 14.7711 23.403 13.8359 22.1807C12.91 20.9585 12.116 19.69 11.454 18.3752C10.792 17.0604 10.4609 15.4261 10.4609 13.4724C10.4609 10.639 11.4424 8.2409 13.4054 6.27795C15.3683 4.31498 17.7665 3.3335 20.5998 3.3335C23.4331 3.3335 25.8313 4.31498 27.7943 6.27795C29.7572 8.2409 30.7387 10.639 30.7387 13.4724C30.7387 15.4261 30.41 17.0604 29.7526 18.3752C29.0952 19.69 28.2989 20.9585 27.3637 22.1807C26.4378 23.403 25.4771 24.6807 24.4818 26.0141C23.4864 27.3474 22.66 29.0187 22.0026 31.028C21.8915 31.3335 21.7109 31.5812 21.4609 31.771C21.2109 31.9608 20.9239 32.0557 20.5998 32.0557ZM20.5998 16.3196C21.3868 16.3196 22.0581 16.0418 22.6137 15.4863C23.1692 14.9307 23.447 14.2594 23.447 13.4724C23.447 12.6853 23.1692 12.0141 22.6137 11.4585C22.0581 10.903 21.3868 10.6252 20.5998 10.6252C19.8128 10.6252 19.1415 10.903 18.5859 11.4585C18.0304 12.0141 17.7526 12.6853 17.7526 13.4724C17.7526 14.2594 18.0304 14.9307 18.5859 15.4863C19.1415 16.0418 19.8128 16.3196 20.5998 16.3196Z" fill="#809D79"/>
</g>
</g>
</svg>
