<svg width="20" height="21" viewBox="0 0 20 21" fill="none" xmlns="http://www.w3.org/2000/svg">
  <g id="Group">
    <path id="Vector"
      d="M10.002 2.30113C12.6744 2.30113 12.9908 2.31285 14.0418 2.35974C15.0186 2.40272 15.546 2.56681 15.8976 2.70356C16.3626 2.88328 16.6986 3.10207 17.0463 3.4498C17.3979 3.80143 17.6128 4.13352 17.7925 4.59846C17.9293 4.95009 18.0934 5.48144 18.1364 6.45429C18.1832 7.50918 18.195 7.82565 18.195 10.4941C18.195 13.1665 18.1832 13.483 18.1364 14.534C18.0934 15.5107 17.9293 16.0382 17.7925 16.3898C17.6128 16.8548 17.394 17.1908 17.0463 17.5385C16.6947 17.8901 16.3626 18.105 15.8976 18.2847C15.546 18.4215 15.0147 18.5856 14.0418 18.6285C12.9869 18.6754 12.6704 18.6871 10.002 18.6871C7.32956 18.6871 7.01309 18.6754 5.9621 18.6285C4.98535 18.5856 4.4579 18.4215 4.10627 18.2847C3.64134 18.105 3.30533 17.8862 2.95761 17.5385C2.60598 17.1869 2.39109 16.8548 2.21137 16.3898C2.07462 16.0382 1.91053 15.5068 1.86755 14.534C1.82067 13.4791 1.80895 13.1626 1.80895 10.4941C1.80895 7.82174 1.82067 7.50527 1.86755 6.45429C1.91053 5.47753 2.07462 4.95009 2.21137 4.59846C2.39109 4.13352 2.60988 3.79752 2.95761 3.4498C3.30924 3.09816 3.64134 2.88328 4.10627 2.70356C4.4579 2.56681 4.98926 2.40272 5.9621 2.35974C7.01309 2.31285 7.32956 2.30113 10.002 2.30113ZM10.002 0.5C7.28658 0.5 6.94667 0.511721 5.88006 0.558605C4.81735 0.605489 4.08674 0.777398 3.4538 1.02354C2.79351 1.2814 2.23481 1.62131 1.68002 2.18002C1.12131 2.73481 0.781403 3.29351 0.52354 3.94989C0.277398 4.58674 0.105489 5.31344 0.0586052 6.37615C0.011721 7.44667 0 7.78658 0 10.502C0 13.2173 0.011721 13.5572 0.0586052 14.6239C0.105489 15.6866 0.277398 16.4172 0.52354 17.0501C0.781403 17.7104 1.12131 18.2691 1.68002 18.8239C2.23481 19.3787 2.79351 19.7225 3.44989 19.9765C4.08674 20.2226 4.81344 20.3945 5.87615 20.4414C6.94276 20.4883 7.28267 20.5 9.99805 20.5C12.7134 20.5 13.0533 20.4883 14.1199 20.4414C15.1827 20.3945 15.9133 20.2226 16.5462 19.9765C17.2026 19.7225 17.7613 19.3787 18.3161 18.8239C18.8709 18.2691 19.2147 17.7104 19.4686 17.054C19.7148 16.4172 19.8867 15.6905 19.9336 14.6278C19.9805 13.5611 19.9922 13.2212 19.9922 10.5059C19.9922 7.79049 19.9805 7.45058 19.9336 6.38396C19.8867 5.32125 19.7148 4.59064 19.4686 3.95771C19.2225 3.29351 18.8826 2.73481 18.3239 2.18002C17.7691 1.62522 17.2104 1.2814 16.554 1.02745C15.9172 0.781305 15.1905 0.609396 14.1278 0.562512C13.0572 0.511721 12.7173 0.5 10.002 0.5Z"
      fill="#365C24" />
    <path id="Vector_2"
      d="M10.002 5.36426C7.16549 5.36426 4.86426 7.66549 4.86426 10.502C4.86426 13.3385 7.16549 15.6397 10.002 15.6397C12.8385 15.6397 15.1397 13.3385 15.1397 10.502C15.1397 7.66549 12.8385 5.36426 10.002 5.36426ZM10.002 13.8347C8.16178 13.8347 6.6693 12.3422 6.6693 10.502C6.6693 8.66178 8.16178 7.1693 10.002 7.1693C11.8422 7.1693 13.3347 8.66178 13.3347 10.502C13.3347 12.3422 11.8422 13.8347 10.002 13.8347Z"
      fill="#365C24" />
    <path id="Vector_3"
      d="M16.5425 5.16088C16.5425 5.82507 16.0033 6.36033 15.343 6.36033C14.6788 6.36033 14.1436 5.82117 14.1436 5.16088C14.1436 4.49669 14.6827 3.96143 15.343 3.96143C16.0033 3.96143 16.5425 4.50059 16.5425 5.16088Z"
      fill="#365C24" />
  </g>
</svg>