<svg width="64" height="64" viewBox="0 0 64 64" fill="none" xmlns="http://www.w3.org/2000/svg">
<path d="M32 64C26.3703 64 20.8402 62.5148 15.968 59.6943C11.0958 56.8738 7.05387 52.8179 4.25029 47.9359C1.4467 43.054 -0.0193253 37.5188 0.000190735 31.8891C0.0197067 26.2594 1.52407 20.7345 4.36143 15.8721C7.19879 11.0097 11.2687 6.98186 16.1604 4.19522C21.052 1.40857 26.5923 -0.0382591 32.2218 0.000768965C37.8514 0.039797 43.3711 1.5633 48.2236 4.4175C53.0762 7.2717 57.0899 11.3556 59.8595 16.2568L32 32L32 64Z" fill="#5F7D40"/>
<circle cx="32" cy="31.9668" r="28" fill="#E8F0D1"/>
<path d="M39.3345 31.0396L29.2117 24.8532C29.0412 24.7489 28.846 24.692 28.6461 24.6882C28.4463 24.6844 28.2491 24.7339 28.0748 24.8317C27.9004 24.9294 27.7553 25.0718 27.6543 25.2443C27.5532 25.4167 27.5 25.613 27.5 25.8128V38.1867C27.5002 38.3865 27.5535 38.5827 27.6546 38.755C27.7556 38.9274 27.9007 39.0697 28.075 39.1674C28.2493 39.2652 28.4464 39.3147 28.6462 39.311C28.846 39.3073 29.0411 39.2505 29.2117 39.1464L39.3345 32.96C39.4989 32.8594 39.6348 32.7183 39.729 32.5502C39.8233 32.3821 39.8728 32.1926 39.8728 31.9998C39.8728 31.807 39.8233 31.6175 39.729 31.4494C39.6348 31.2813 39.4989 31.1402 39.3345 31.0396Z" fill="#365C24"/>
</svg>
