<svg width="25" height="24" viewBox="0 0 25 24" fill="none" xmlns="http://www.w3.org/2000/svg">
<path fill-rule="evenodd" clip-rule="evenodd" d="M15.6553 14.32H16.4683L21.6033 19.468L20.0703 21L14.9243 15.864V15.051L14.6463 14.763C13.4363 15.8068 11.8913 16.3807 10.2933 16.38C8.97012 16.38 7.67667 15.9876 6.57651 15.2525C5.47634 14.5174 4.61887 13.4726 4.11252 12.2502C3.60617 11.0277 3.47369 9.68258 3.73182 8.38485C3.98996 7.08712 4.62712 5.89507 5.56273 4.95946C6.49834 4.02385 7.69039 3.38668 8.98812 3.12855C10.2859 2.87041 11.631 3.0029 12.8534 3.50925C14.0759 4.0156 15.1207 4.87307 15.8558 5.97324C16.5909 7.0734 16.9833 8.36685 16.9833 9.69C16.9842 11.2883 16.4103 12.8337 15.3663 14.044L15.6553 14.322V14.32ZM5.66127 9.69C5.66062 10.2984 5.77999 10.9009 6.01256 11.4631C6.24513 12.0252 6.58633 12.536 7.01661 12.9661C7.44689 13.3962 7.95779 13.7372 8.52006 13.9695C9.08232 14.2018 9.6849 14.3209 10.2933 14.32C10.9015 14.3207 11.5038 14.2014 12.0659 13.9689C12.6279 13.7365 13.1386 13.3954 13.5686 12.9654C13.9987 12.5353 14.3397 12.0246 14.5722 11.4626C14.8046 10.9006 14.9239 10.2982 14.9233 9.69C14.9242 9.08163 14.8051 8.47905 14.5728 7.91679C14.3404 7.35452 13.9994 6.84362 13.5694 6.41334C13.1393 5.98306 12.6285 5.64186 12.0663 5.40929C11.5042 5.17672 10.9016 5.05734 10.2933 5.058C9.68473 5.05708 9.08199 5.17626 8.51959 5.40872C7.9572 5.64117 7.4462 5.98232 7.0159 6.41263C6.5856 6.84293 6.24444 7.35393 6.01199 7.91632C5.77953 8.47872 5.66035 9.08146 5.66127 9.69Z" fill="#939393"/>
</svg>
