<svg width="24" height="25" viewBox="0 0 24 25" fill="none" xmlns="http://www.w3.org/2000/svg">
<g id="icon/negative/Telegram ">
<path id="Subtract" fill-rule="evenodd" clip-rule="evenodd" d="M22 12.5C22 18.0228 17.5228 22.5 12 22.5C6.47715 22.5 2 18.0228 2 12.5C2 6.97715 6.47715 2.5 12 2.5C17.5228 2.5 22 6.97715 22 12.5ZM12.3584 9.88244C11.3857 10.287 9.44178 11.1243 6.52658 12.3944C6.05319 12.5827 5.80521 12.7668 5.78264 12.9469C5.74449 13.2512 6.12559 13.3711 6.64456 13.5343C6.71515 13.5565 6.7883 13.5795 6.86328 13.6038C7.37386 13.7698 8.06069 13.964 8.41774 13.9717C8.74162 13.9787 9.10311 13.8452 9.5022 13.5711C12.226 11.7325 13.632 10.8032 13.7203 10.7831C13.7825 10.769 13.8688 10.7512 13.9273 10.8032C13.9858 10.8552 13.98 10.9536 13.9738 10.98C13.9361 11.141 12.4401 12.5318 11.6659 13.2515C11.4246 13.4759 11.2534 13.635 11.2184 13.6714C11.14 13.7528 11.0601 13.8298 10.9833 13.9038C10.509 14.3611 10.1533 14.704 11.003 15.264C11.4114 15.5331 11.7381 15.7556 12.0641 15.9776C12.4201 16.2201 12.7752 16.4619 13.2347 16.7631C13.3517 16.8398 13.4635 16.9195 13.5724 16.9971C13.9867 17.2925 14.359 17.5578 14.8188 17.5155C15.086 17.4909 15.3621 17.2397 15.5022 16.4903C15.8335 14.7193 16.4847 10.882 16.6352 9.30081C16.6484 9.16227 16.6318 8.98498 16.6185 8.90715C16.6051 8.82931 16.5773 8.71842 16.4761 8.63633C16.3563 8.53911 16.1714 8.51861 16.0886 8.52007C15.7125 8.5267 15.1355 8.72735 12.3584 9.88244Z" fill="#365C24"/>
</g>
</svg>
